<?xml version="1.0" encoding="UTF-8"?>
<svg width="666px" height="190px" viewBox="0 0 666 190" version="1.1" xmlns="http://www.w3.org/2000/svg" xmlns:xlink="http://www.w3.org/1999/xlink">
    <title>logoLD2</title>
    <defs>
        <polygon id="path-1" points="0 0 26.8609256 0 26.8609256 19.5336311 0 19.5336311"></polygon>
    </defs>
    <g id="Page-1" stroke="none" stroke-width="1" fill="none" fill-rule="evenodd">
        <g id="Group-111" transform="translate(332.640250, 94.827266) rotate(-90.000000) translate(-332.640250, -94.827266) translate(237.812984, -237.812984)">
            <path d="M115.198821,311.9758 C121.427821,311.9758 127.657821,311.9408 133.886821,311.9978 C135.731821,312.0138 137.270821,311.6538 138.629821,310.2628 C146.010821,302.7148 150.130821,293.7638 149.797821,283.1458 C149.474821,272.8618 144.840821,267.3998 134.848821,264.7438 C133.157821,264.2948 131.428821,263.9768 129.703821,263.6708 C120.515821,262.0378 111.250821,262.5498 101.994821,262.6588 C98.1378213,262.7038 94.3178213,263.1388 90.5988213,263.9628 C75.8948213,267.2178 71.1608213,274.3538 73.1468213,289.1498 C74.9018213,302.2268 86.6508213,311.9588 99.8648213,311.9758 C104.975821,311.9818 110.087821,311.9768 115.198821,311.9758 M91.8218213,312.9338 C88.5748213,311.0448 86.0118213,309.7508 83.6578213,308.1498 C75.5528213,302.6368 71.4278213,294.9428 71.1798213,285.1058 C70.9918213,277.6438 71.9398213,270.4338 75.2488213,263.6588 C78.6218213,256.7558 83.8398213,251.6708 90.9848213,248.9368 C103.678821,244.0808 116.650821,244.0098 129.488821,248.1958 C141.826821,252.2198 148.167821,261.5698 150.555821,273.8898 C153.103821,287.0388 150.615821,298.9898 141.697821,309.3058 C141.206821,309.8738 140.436821,310.3228 140.669821,311.6278 C141.814821,312.2568 143.256821,311.9598 144.608821,311.9618 C158.199821,311.9858 171.790821,311.9648 185.380821,311.9838 C189.573821,311.9908 189.594821,312.0308 189.632821,316.1768 C189.663821,319.5348 189.584821,322.8938 189.652821,326.2508 C189.692821,328.2168 189.038821,329.2948 186.899821,329.0868 C186.107821,329.0098 185.301821,329.0788 184.501821,329.0788 C149.006821,329.0788 113.510821,329.0798 78.0148213,329.0788 C77.0558213,329.0788 76.0958213,329.0928 75.1378213,329.0538 C74.3448213,329.0208 73.5048213,328.9778 73.2728213,327.9768 C73.0828213,327.1588 73.1698213,326.3308 73.8298213,325.7768 C74.8068213,324.9578 75.8648213,324.2328 76.9068213,323.4938 C81.7048213,320.0888 86.5098213,316.6928 91.8218213,312.9338" id="Fill-8" fill="#000000" fill-rule="nonzero"></path>
            <path d="M131.645321,8.6301 C148.892321,8.6301 166.139321,8.6301 183.386321,8.6311 C184.504321,8.6311 185.624321,8.6821 186.739321,8.6341 C188.557321,8.5551 189.336321,9.3791 189.314321,11.1961 C189.267321,15.1881 189.264321,19.1811 189.319672,23.1731 C189.342321,24.9301 188.749321,25.9021 186.848321,25.7881 C185.894321,25.7311 184.933321,25.7911 183.975321,25.7911 C148.842321,25.7921 113.709321,25.7921 78.5763213,25.7921 C77.6183213,25.7921 76.6573213,25.7441 75.7023213,25.7931 C73.9053213,25.8871 73.0923213,25.1241 73.1203213,23.2761 C73.1793213,19.4441 73.2513213,15.6051 73.0913213,11.7791 C72.9803213,9.1331 74.2283213,8.5841 76.5503213,8.6001 C87.2503213,8.6721 97.9493213,8.6301 108.649321,8.6301 C116.314321,8.6301 123.980321,8.6301 131.645321,8.6301" id="Fill-10" fill="#000000" fill-rule="nonzero"></path>
            <path d="M111.528521,99.194 C111.528521,105.43 111.570521,111.667 111.504521,117.902 C111.483521,119.924 112.197521,120.897 114.299521,120.702 C117.796521,120.376 121.319521,120.259 124.789521,119.762 C130.017521,119.013 135.139521,117.797 139.835521,115.215 C146.224521,111.701 149.900521,106.527 149.896528,99.034 C149.893521,91.524 146.189521,86.37 139.742521,82.941 C132.056521,78.853 123.696521,77.794 115.174521,77.599 C111.623521,77.517 111.566521,77.638 111.536521,81.445 C111.489521,87.361 111.523521,93.278 111.528521,99.194 M101.890521,130.131 C96.4185213,130.926 91.3495213,129.248 86.7155213,126.556 C76.6805213,120.727 71.4675213,111.866 71.2055213,100.193 C71.0865213,94.899 71.3655213,89.653 72.9405213,84.538 C76.2865213,73.672 83.2695213,66.216 94.0955213,62.804 C104.681521,59.467 115.496521,59.329 126.235521,62.207 C139.154521,65.669 147.016521,74.085 150.069521,87.097 C151.890521,94.861 151.929521,102.646 150.234521,110.381 C146.912521,125.548 136.691521,134.864 121.271521,137.01 C118.588521,137.383 115.876521,137.554 113.178521,137.817 C111.431521,137.987 110.417521,137.353 110.487521,135.438 C110.528521,134.321 110.483521,133.201 110.482521,132.082 C110.482521,115.78 110.482521,99.478 110.481521,83.176 C110.481521,82.057 110.451521,80.938 110.462521,79.82 C110.474521,78.53 110.028521,77.594 108.584521,77.622 C98.9525213,77.808 89.2615213,78.194 80.9235213,83.737 C73.5305213,88.652 71.8335213,96.176 73.1965213,104.476 C75.6175213,119.215 87.4935213,128.23 99.5995213,128.801 C100.375521,128.837 101.145521,128.996 101.917521,129.098 C101.908521,129.442 101.899521,129.787 101.890521,130.131" id="Fill-12" fill="#000000" fill-rule="nonzero"></path>
            <path d="M111.528821,402.5201 C111.528821,408.7561 111.572821,414.9931 111.503821,421.2281 C111.480821,423.2931 112.286821,424.1651 114.345821,423.9721 C117.841821,423.6461 121.366821,423.5391 124.834821,423.0351 C130.058821,422.2741 135.182821,421.0611 139.875821,418.4721 C146.264821,414.9471 149.920821,409.7541 149.894117,402.2651 C149.866821,394.7661 146.173821,389.5991 139.702821,386.1971 C131.700821,381.9901 123.018821,381.0461 114.169821,380.8361 C111.964821,380.7841 111.494821,381.9181 111.509821,383.8121 C111.559821,390.0481 111.528821,396.2841 111.528821,402.5201 M102.521821,433.3161 C96.7268213,434.1961 91.8698213,432.6861 87.4268213,430.2341 C77.1088213,424.5391 71.5938213,415.6881 71.2168213,403.8111 C71.0438213,398.3611 71.3348213,392.9531 72.9808213,387.6851 C76.3698213,376.8341 83.3918213,369.4061 94.2208213,366.0381 C104.976821,362.6931 115.964821,362.5671 126.822821,365.6381 C139.284821,369.1611 146.938821,377.4221 149.983821,390.0311 C151.855821,397.7851 151.926821,405.5651 150.323821,413.3131 C147.173821,428.5431 136.647821,438.1981 121.151821,440.2961 C118.467821,440.6591 115.757821,440.8431 113.057821,441.0881 C111.246821,441.2521 110.395821,440.4211 110.480821,438.5831 C110.531821,437.4671 110.482821,436.3461 110.482821,435.2271 C110.481821,418.6071 110.492821,401.9881 110.475821,385.3681 C110.470821,380.8471 110.431821,380.7691 106.060821,380.8861 C99.8178213,381.0521 93.6228213,381.7421 87.6738213,383.7311 C75.8148213,387.6961 70.6778213,397.0451 73.4968213,409.2861 C76.4908213,422.2861 86.0328213,430.7141 99.2408213,432.0521 C100.150821,432.1451 101.167821,431.8811 102.521821,433.3161" id="Fill-14" fill="#000000" fill-rule="nonzero"></path>
            <path d="M117.231321,634.1795 C115.192321,633.6465 113.990321,635.0975 112.604321,636.1245 C101.330321,644.4755 90.0713213,652.8475 78.7593213,661.1465 C77.1543213,662.3245 75.7053213,663.8945 73.1373213,664.4725 C73.1373213,657.9415 73.1873213,651.7725 73.1106409,645.6055 C73.0833213,643.3905 74.7683213,642.6605 76.1263213,641.6535 C85.0873213,635.0015 94.0783213,628.3905 103.046321,621.7495 C103.808321,621.1855 104.478321,620.4985 105.190321,619.8685 C106.712321,619.9605 107.920321,619.4785 108.583321,618.0045 C116.050321,611.5415 124.361321,606.1955 132.171321,600.1855 C136.585321,596.7885 141.123321,593.5505 145.609321,590.2465 C146.480321,589.6055 147.317321,588.8695 148.934321,588.7105 C148.934321,595.1145 148.910321,601.2715 148.953522,607.4285 C148.963321,608.8905 148.232321,609.7495 147.139321,610.5465 C137.625321,617.4845 128.131321,624.4495 118.633321,631.4055 C117.817321,632.1525 117.143321,632.9735 117.231321,634.1795" id="Fill-16" fill="#000000" fill-rule="nonzero"></path>
            <path d="M91.7981213,541.0691 C90.9471213,539.5061 89.2231213,539.2701 87.8511213,538.5271 C76.9671213,532.6221 70.7651213,523.9101 71.1851213,511.1221 C71.2961213,507.7671 71.2981213,504.4201 71.9721213,501.1041 C74.9451213,486.4711 84.3671213,477.0271 99.0091213,474.1921 C102.296121,473.5551 105.615121,473.0801 108.996121,473.0901 C120.982121,473.1221 132.968121,473.0641 144.954121,473.0871 C148.868121,473.0941 148.897121,473.1581 148.944121,477.0671 C148.985121,480.4231 148.864121,483.7831 148.979121,487.1351 C149.056121,489.3901 148.224121,490.4101 145.923121,490.2121 C144.813121,490.1161 143.687121,490.1981 142.569121,490.2001 C129.624121,490.2231 116.679121,490.1901 103.735121,490.2971 C98.4581213,490.3411 93.2141213,491.0311 88.0981213,492.3341 C77.1491213,495.1221 72.6621213,500.9991 72.7631213,512.3291 C72.8601213,523.2101 77.8061213,531.2231 87.2661213,536.5291 C88.9211213,537.4571 90.8481213,537.8881 92.2571213,539.2611 C92.1041213,539.8641 91.9511213,540.4661 91.7981213,541.0691" id="Fill-18" fill="#000000" fill-rule="nonzero"></path>
            <path d="M91.7981213,541.0691 C91.9511213,540.4661 92.1041213,539.8641 92.2571213,539.2611 C96.8371213,540.0891 101.462121,540.0281 106.090121,540.0191 C119.032121,539.9931 131.974121,539.9901 144.916121,540.0241 C148.853121,540.0341 148.885121,540.1021 148.936121,544.0021 C148.980121,547.3571 148.872121,550.7151 148.965121,554.0681 C149.021121,556.0741 148.226121,557.0641 146.220121,557.0741 C145.261121,557.0791 144.303121,557.1081 143.345121,557.1081 C121.775121,557.1101 100.204121,557.1291 78.6351213,557.0751 C76.8321213,557.0701 74.2851213,558.0081 73.4301213,555.8791 C72.3561213,553.2041 75.3311213,552.5571 76.8581213,551.4481 C81.7631213,547.8861 86.8071213,544.5141 91.7981213,541.0691" id="Fill-20" fill="#000000" fill-rule="nonzero"></path>
            <path d="M7.68272129,277.3796 C11.8117213,277.3796 15.9397213,277.3796 20.0687213,277.3796 C21.3477213,277.3796 22.6277213,277.3616 23.9057213,277.3896 C25.1767213,277.4176 26.7187213,277.2726 26.6507213,279.1606 C26.5827213,281.0546 24.9767213,280.7576 23.7597213,280.7626 C16.8837213,280.7916 10.0077213,280.7886 3.13172129,280.7636 C2.05772129,280.7606 0.742721287,280.9996 0.354721287,279.5346 C0.0177212876,278.2626 0.838721287,277.4586 1.76172129,276.7346 C6.41272129,273.0896 11.0587213,269.4376 15.6917213,265.7696 C16.9017213,264.8106 18.4187213,264.1236 19.0947213,261.8116 C15.8057213,261.7626 12.7157213,261.7106 9.62572129,261.6736 C7.06872129,261.6436 4.51072129,261.6536 1.95372129,261.5966 C1.08472129,261.5776 0.408721287,261.1426 0.317721287,260.1936 C0.205721287,259.0186 0.844721287,258.3646 1.97272129,258.3346 C4.52872129,258.2696 7.08772129,258.2726 9.64572129,258.2676 C14.1227213,258.2586 18.6007213,258.2316 23.0767213,258.2876 C24.2797213,258.3016 25.9087213,257.7126 26.5007213,259.2216 C27.1637213,260.9126 25.5947213,261.7846 24.5257213,262.6676 C22.0637213,264.7026 19.5237213,266.6426 17.0347213,268.6446 C13.8177213,271.2326 10.6197213,273.8436 7.41272129,276.4436 C7.50272129,276.7556 7.59272129,277.0676 7.68272129,277.3796" id="Fill-22" fill="#4B4B4B" fill-rule="nonzero"></path>
            <path d="M13.6761213,162.340186 C21.2971213,162.3482 27.0831213,168.7742 26.9461213,176.8512 C26.8161213,184.5822 20.7231213,190.7862 13.3101213,190.4982 C6.00712129,190.2142 -0.414878713,184.5502 0.102121287,175.9912 C-0.486878713,168.7272 6.18912129,162.3322 13.6761213,162.340186 Z M2.89906425,176.4062 C2.88632718,182.736105 7.16982624,187.058297 13.4516139,187.110992 L13.7571213,187.1102 L13.7571213,187.1102 C19.8841213,187.0262 24.1771213,182.6142 24.1651714,176.4102 C24.1531213,170.2262 19.8271213,165.7932 13.7201213,165.7092 C7.19812129,165.6192 2.91212129,169.8562 2.89906425,176.4062 Z" id="Combined-Shape" fill="#4B4B4B" fill-rule="nonzero"></path>
            <path d="M26.9474577,238.9336 C26.9101213,246.7476 21.0831213,252.9556 13.6101213,252.8796 C6.23312129,252.8046 -0.335878713,247.0276 0.102121287,238.6756 C-0.556878713,231.0656 6.10612129,224.9196 13.3761213,224.7206 C20.9401213,224.5126 26.9841213,230.9276 26.9474577,238.9336 Z M13.5301213,228.092558 C7.05412129,228.0816 2.84112129,232.3946 2.89912129,238.9796 C2.9542324,245.260298 7.32113187,249.514882 13.6398629,249.497822 L13.9471213,249.4936 C20.0151213,249.3446 24.2491213,244.8316 24.1651213,238.6036 C24.0821213,232.4756 19.6581213,228.1026 13.5301213,228.092558 L13.5301213,228.092558 Z" id="Combined-Shape" fill="#4B4B4B" fill-rule="nonzero"></path>
            <path d="M13.9466213,195.8846 C17.3036213,195.8876 20.6616213,195.9446 24.0176213,195.8676 C26.0856213,195.8196 26.8776213,196.7296 26.8286213,198.7426 C26.7516213,201.9386 26.9716213,205.1486 26.7616213,208.3326 C26.2626213,215.9026 20.6636213,221.1656 13.2866213,221.211072 C6.29162129,221.2536 0.548621287,215.4516 0.228621287,207.9216 C0.113621287,205.2086 0.153621287,202.4866 0.196621287,199.7696 C0.256621287,196.0086 0.285621287,195.9626 3.87562129,195.8956 C7.23162129,195.8326 10.5896213,195.8816 13.9466213,195.8846 Z M2.94362129,201.6436 C3.04062129,204.0336 2.83462129,206.4446 3.06462129,208.8166 C3.54562129,213.7856 7.22062129,217.3486 12.0756213,217.8116 C12.5167413,217.8536 12.9482805,217.876534 13.3698513,217.880702 L13.6841543,217.880314 C18.3704813,217.82185 21.7829213,215.3977 23.3696213,211.0336 C24.5586213,207.7616 23.9656213,204.4046 24.0276213,201.0796 C24.0586213,199.4446 22.9616213,198.8616 21.5256213,198.8416 C20.8478713,198.8321 20.1700588,198.826663 19.492215,198.82385 L17.4586213,198.82185 C16.7807463,198.82285 16.1028713,198.825038 15.4250275,198.826975 L13.3916213,198.8306 L13.3916213,198.8306 L13.3916213,198.7946 L13.3916213,198.7946 C12.3708213,198.7946 11.3497013,198.8034 10.3286453,198.809352 L8.79715729,198.814688 C7.77626129,198.81488 6.75562129,198.8064 5.73562129,198.7776 L5.73562129,198.7776 C3.68462129,198.7186 2.86262129,199.6286 2.94362129,201.6436 Z" id="Combined-Shape" fill="#4B4B4B" fill-rule="nonzero"></path>
            <path d="M26.8348213,84.3162 C26.7218213,87.4962 26.9618213,90.6942 26.7578213,93.8652 C26.3168213,100.7542 21.1208213,105.9762 14.5918213,106.3212 C7.00082129,106.7222 1.44382129,102.5342 0.442821287,95.1332 C-0.0651787124,91.3772 0.271821287,87.5072 0.209821287,83.6892 C0.182821287,82.0562 1.04782129,81.4362 2.57982129,81.4432 C6.24082129,81.4592 9.90282129,81.4482 13.5638213,81.4482 L13.5638213,81.4322 C16.9068213,81.4322 20.2518213,81.5002 23.5928213,81.4072 C25.7008213,81.3482 26.9208213,81.9102 26.8348213,84.3162 Z M12.9147213,103.3903 C15.3636862,103.580932 17.6478414,102.877319 19.5112962,101.490971 C19.7851459,101.287248 20.0504856,101.068283 20.3058831,100.835184 C20.6316377,100.537879 20.9413078,100.217466 21.2330954,99.8754473 C22.2391294,98.6962435 23.0325274,97.2603602 23.5438213,95.6252 C24.0173471,94.1128166 24.0595979,92.5978391 24.0748143,91.0729556 C24.0790413,90.7044171 24.0812967,90.3351997 24.0877213,89.9653 L24.0877213,89.9653 L24.0932768,88.6935963 L24.0932768,88.6935963 L24.0847213,88.0583 C24.0459561,86.7134461 24.0213625,85.8654301 23.8157012,85.3276612 C23.4703525,84.4226129 22.6117183,84.3962221 20.3088213,84.3592 C17.2898213,84.3102 14.2698213,84.3482 11.2508213,84.3482 L10.1111998,84.3490564 C9.92968102,84.3494346 9.75230644,84.3500019 9.57899126,84.3508528 L9.32215245,84.3522538 C8.98468827,84.3545628 8.66318882,84.3581869 8.35698225,84.3638754 C8.31052478,84.3648358 8.26356063,84.3657636 8.21695931,84.3667434 C7.43025797,84.3831921 6.74718304,84.4145594 6.15551519,84.4740444 L5.98725254,84.4920969 C2.17734629,84.9234875 2.34122129,86.64905 2.99672129,93.5513 C3.51472129,99.0103 7.50572129,102.9693 12.9147213,103.3903 Z" id="Combined-Shape" fill="#4B4B4B" fill-rule="nonzero"></path>
            <path d="M26.9497937,321.8241 C26.9175213,329.8961 21.4425213,335.6471 13.7115213,335.7291 C5.59852129,335.8151 0.104521287,330.1971 0.10051877,321.8131 C0.0975212876,313.6591 5.45352129,308.0201 13.2735213,307.9441 C21.3955213,307.8651 26.9815213,313.5351 26.9497937,321.8241 Z M13.4235213,310.8641 C7.29952129,310.9231 2.84752129,315.6291 2.89652129,321.9911 C2.51652129,328.2771 7.66152129,332.6861 13.7835213,332.71722 L14.0669396,332.714762 C19.8071946,332.587708 24.1536829,327.778277 24.1635596,321.8721 C24.1745213,315.6431 19.4545213,310.8051 13.4235213,310.8641 L13.4235213,310.8641 Z" id="Combined-Shape" fill="#4B4B4B" fill-rule="nonzero"></path>
            <path d="M13.4527213,360.730162 C21.5197213,360.7182 27.0447213,366.4732 26.9477213,374.7902 C26.8547213,382.8262 21.3087213,388.5002 13.5317213,388.515268 C5.45472129,388.5312 0.0527212876,382.8622 0.101721287,374.4202 C0.147721287,366.3112 5.57772129,360.7432 13.4527213,360.730162 Z M2.89672129,374.4652 C2.44272129,380.8802 7.28572129,385.2382 13.4727213,385.5042 L13.7535095,385.512402 L13.7535095,385.512402 L14.0324933,385.512783 L14.0324933,385.512783 L14.309585,385.505442 C19.7398784,385.285789 24.0217374,380.643668 24.1597213,374.9692 C24.3127213,368.7082 19.7637213,363.7692 13.7357213,363.6502 C7.62572129,363.5302 2.94672129,368.1982 2.89672129,374.4652 Z" id="Combined-Shape" fill="#4B4B4B" fill-rule="nonzero"></path>
            <path d="M8.97862129,415.9068 C3.00762129,415.9378 1.79262129,415.3108 0.689621287,410.8188 C-1.43537871,402.1688 1.28462129,395.0788 9.76762129,392.3978 C17.7146213,389.8868 26.0246213,395.4738 26.8686213,403.7698 C27.2296213,407.3188 26.9606213,410.8288 24.7926213,413.8698 C24.1716213,414.7418 23.3596213,415.8488 22.0716213,414.8598 C21.0296213,414.0598 21.7096213,413.1678 22.2366213,412.3588 C24.5166213,408.8588 24.6806213,405.1898 23.1006213,401.3868 C20.7936213,395.8298 14.6176213,393.4018 9.12062129,395.8878 C3.85162129,398.2708 1.23462129,405.5058 3.70562129,410.5698 C4.45662129,412.1098 5.56162129,412.6108 7.13662129,412.5918 C8.73262129,412.5728 10.3326213,412.6018 11.9276213,412.6678 C12.8246213,412.7058 13.3986213,413.1668 13.3976213,414.1538 C13.3976213,414.9218 12.9236213,415.3548 12.2676213,415.4678 C10.8576213,415.7098 9.43062129,415.8488 8.97862129,415.9068" id="Fill-36" fill="#4B4B4B" fill-rule="nonzero"></path>
            <path d="M16.2240213,73.3555 C14.4600213,73.2475 11.5840213,73.6525 8.72802129,73.0165 C2.93802129,71.7275 0.196021287,68.4905 0.101021287,62.6635 C-0.000978712428,56.3885 2.54802129,52.8355 8.42202129,51.6145 C13.7830213,50.4995 19.2450213,51.2415 24.6620213,51.2085 C25.6460213,51.2025 26.5970213,51.6795 26.6110213,52.8785 C26.6320213,54.5105 25.3670213,54.4795 24.2430213,54.4855 C20.5690213,54.5075 16.8940213,54.4755 13.2200213,54.5125 C11.7880213,54.5265 10.3240213,54.5035 8.93202129,54.7865 C4.72502129,55.6405 2.74102129,58.3245 2.90902129,62.6835 C3.07002129,66.8525 5.47802129,69.6425 9.68802129,69.9325 C13.6640213,70.2065 17.6700213,70.0425 21.6630213,70.0755 C22.7810213,70.0845 23.9010213,70.0635 25.0160213,70.1315 C26.1480213,70.2005 26.7750213,70.8515 26.6690213,72.0035 C26.5800213,72.9655 25.8410213,73.3315 24.9880213,73.3435 C22.4330213,73.3775 19.8780213,73.3555 16.2240213,73.3555" id="Fill-38" fill="#4B4B4B" fill-rule="nonzero"></path>
            <path d="M2.1525415,638.876042 L2.33822129,638.9603 L2.33822129,638.9603 C9.88522129,642.3943 17.4202213,645.8523 24.9652213,649.2903 C26.0692213,649.7923 26.8612213,650.4663 26.7452213,651.8463 C26.6982213,652.8993 26.0452213,653.5283 25.1122213,653.9553 C17.5722213,657.4093 10.0352213,660.8713 2.49222129,664.3173 C1.75022129,664.6563 0.889221287,664.8963 0.433221287,663.9693 C0.0712212876,663.2323 0.150221287,662.3653 0.827221287,661.7793 C1.29922129,661.3723 1.87022129,660.9383 2.45522129,660.8283 C6.72422129,660.0243 7.49822129,657.1333 7.05722129,653.4163 C6.94422129,652.4713 6.93622129,651.4893 7.05822129,650.5473 C7.58122129,646.4833 6.72522129,643.2783 2.17922129,642.1713 C1.73322129,642.0633 1.29322129,641.7813 0.937221287,641.4783 C0.270221287,640.9113 0.0562212876,640.1233 0.371221287,639.3193 C0.759264766,638.324996 1.49410598,638.581164 2.1525415,638.876042 Z M10.0292213,645.9603 C9.55322129,649.8403 9.63722129,653.3753 9.96222129,657.6433 L10.5827378,657.319047 C14.7117973,655.213266 18.691888,654.177348 22.8452213,651.3183 C18.0552213,649.4003 14.4132213,647.1463 10.0292213,645.9603 L10.0292213,645.9603 Z" id="Combined-Shape" fill="#4B4B4B" fill-rule="nonzero"></path>
            <path d="M2.08912129,21.742 C9.78012129,25.244 17.5001213,28.686 25.1291213,32.319 C27.3991213,33.4 27.4761213,35.641 25.3281213,36.666 C17.7001213,40.305 9.98412129,43.761 2.29612129,47.274 C2.01712129,47.402 1.68212129,47.407 1.45312129,47.453 C0.788121287,47.508 0.523121287,47.126 0.361121287,46.659 C0.139121287,46.016 0.210121287,45.338 0.644121287,44.854 C1.64312129,43.739 3.08312129,43.389 4.43212129,42.923 C6.34012129,42.265 7.19912129,41.055 7.07012129,38.961 C6.92412129,36.576 6.86512129,34.159 7.08312129,31.785 C7.36812129,28.665 6.49412129,26.529 3.28412129,25.577 C2.26612129,25.275 1.06412129,24.902 0.534121287,23.826 C0.283121287,23.319 0.247121287,22.536 0.454121287,22.012 C0.745121287,21.274 1.50612129,21.477 2.08912129,21.742 Z M9.93912129,29.201 C9.61412129,32.701 9.59012129,36.18 10.0421213,40.55 L10.8057517,40.1390299 C14.8688756,38.0203668 18.7727095,37.0210588 22.2221213,34.67 C18.7831213,32.14 13.4211213,29.779 9.93912129,29.201 L9.93912129,29.201 Z" id="Combined-Shape" fill="#4B4B4B" fill-rule="nonzero"></path>
            <path d="M13.6256213,112.1482 C17.1326213,112.1482 20.6396213,112.1852 24.1456213,112.1322 C25.9096213,112.1062 26.8216213,112.7672 26.8079353,114.6252 C26.7746213,119.0882 26.8106213,123.5512 26.7886213,128.0152 C26.7836213,128.9812 26.6626213,130.1102 25.3826213,130.0572 C24.1076213,130.0042 24.1156213,128.8382 24.1056213,127.8922 C24.0746213,125.0232 24.1226213,122.1532 24.0706213,119.2852 C23.9956213,115.1972 23.8586213,115.0902 19.6586213,115.0682 C19.0206213,115.0652 18.3826213,115.1072 17.7456213,115.0822 C15.8896213,115.0102 15.2096213,115.9762 15.2386213,117.7292 C15.2806213,120.2792 15.2896213,122.8322 15.2166213,125.3802 C15.1796213,126.7082 15.6746213,128.6612 13.5026213,128.6022 C11.6956213,128.5522 12.1006213,126.7842 12.0686213,125.5912 C12.0036213,123.2022 11.9506213,120.8042 12.0706213,118.4192 C12.1926213,115.9782 11.2346213,114.8222 8.74862129,115.0702 C8.59162129,115.0862 8.43062129,115.0732 8.27062129,115.0672 C2.98462129,114.8902 2.98262129,114.8902 2.96162129,120.1252 C2.94862129,123.1542 2.95562129,126.1832 2.92562129,129.2112 C2.91762129,130.0912 2.49662129,130.8302 1.56062129,130.820398 C0.623621287,130.8102 0.220621287,130.0622 0.218621287,129.1832 C0.205621287,124.2422 0.222621287,119.3002 0.210595222,114.3592 C0.206621287,112.7052 1.12062129,112.1462 2.62762129,112.1532 C6.29362129,112.1682 9.95962129,112.1582 13.6256213,112.1582 L13.6256213,112.1482 Z" id="Fill-44" fill="#4B4B4B" fill-rule="nonzero"></path>
            <path d="M13.4677213,489.3292 C16.9867213,489.3292 20.5047213,489.3542 24.0237213,489.3172 C25.6967213,489.3002 26.8147213,489.7542 26.8009789,491.7042 C26.7667213,496.3422 26.7947213,500.9802 26.7647213,505.6182 C26.7597213,506.4712 26.3797213,507.2642 25.4227213,507.2602 C24.4457213,507.2572 24.1347213,506.4232 24.1237213,505.5862 C24.0827213,502.5472 24.1257213,499.5082 24.0707213,496.4702 C23.9977213,492.4452 23.8827213,492.3522 20.1157213,492.2502 C15.3437213,492.1202 15.2867213,492.1702 15.2397213,496.8732 C15.2157213,499.2712 15.2477213,501.6722 15.1827213,504.0692 C15.1537213,505.1342 14.6287213,505.9502 13.4187213,505.8352 C12.4617213,505.7452 12.1267213,504.9392 12.1077213,504.1142 C12.0477213,501.5562 12.0877213,498.9962 12.0417213,496.4382 C11.9677213,492.2882 11.9517213,492.2882 7.64972129,492.2482 C7.48972129,492.2472 7.32972129,492.2472 7.16972129,492.2482 C3.02672129,492.2762 3.01072129,492.2762 2.96672129,496.5212 C2.93272129,499.7202 2.96472129,502.9192 2.93272129,506.1182 C2.92272129,507.1282 2.68872129,508.1142 1.35772129,507.9542 C0.349721287,507.8332 0.215721287,506.9572 0.212721287,506.1432 C0.196721287,501.3442 0.233721287,496.5462 0.192309516,491.7482 C0.175721287,489.8202 1.19972129,489.2942 2.91172129,489.3162 C6.42972129,489.3612 9.94872129,489.3292 13.4677213,489.3292" id="Fill-46" fill="#4B4B4B" fill-rule="nonzero"></path>
            <path d="M2.27772129,431.1567 C3.75272129,431.7497 5.21472129,432.3787 6.65972129,433.0407 C12.3007213,435.6237 17.9367213,438.2147 23.5637213,440.8287 C24.4207213,441.2267 25.3867213,441.6017 26.0027213,442.2657 C27.1297213,443.4797 27.3007213,445.0217 25.6127213,445.8167 C17.4277213,449.6707 9.18372129,453.3997 0.689721287,457.2977 C-0.328278713,454.0917 1.38572129,453.1757 3.05572129,452.7787 C6.66172129,451.9207 7.39872129,449.5697 7.05872129,446.3597 C6.94172129,445.2577 6.92572129,444.1187 7.06072129,443.0207 C7.57572129,438.8287 6.84572129,435.4257 2.02872129,434.3247 C1.59372129,434.2257 1.16772129,433.8797 0.844721287,433.5457 C0.248721287,432.9277 0.0607212876,432.1517 0.557721287,431.3997 C0.993721287,430.7427 1.69472129,430.9227 2.27772129,431.1567 Z M9.75472129,440.9717 C9.66072129,443.6527 9.73372129,446.3397 9.73372129,449.7927 L10.522079,449.436133 C14.9653694,447.457373 19.005388,446.151311 22.9437213,443.5947 C19.1727213,441.8917 15.8947213,440.3217 12.5437213,438.9307 C11.8890726,438.65897 11.3851216,438.502319 10.9977608,438.48379 L10.894982,438.482179 C10.0621537,438.497577 9.8155321,439.237241 9.75472129,440.9717 Z" id="Combined-Shape" fill="#4B4B4B" fill-rule="nonzero"></path>
            <path d="M13.5940213,558.4311 C17.1130213,558.4321 20.6320213,558.4691 24.1500213,558.4161 C25.9320213,558.3891 26.8210213,559.0831 26.8082993,560.9321 C26.7750213,565.4111 26.8130213,569.8901 26.7840213,574.3681 C26.7770213,575.3351 26.6310213,576.4581 25.3080213,576.3241 C24.0280213,576.1941 24.1140213,575.0191 24.1040213,574.0861 C24.0710213,571.2071 24.1270213,568.3271 24.0680213,565.4491 C23.9880213,561.5371 23.8510213,561.4321 19.9930213,561.3511 C15.2980213,561.2531 15.2800213,561.2651 15.2400213,566.0981 C15.2230213,568.1771 15.2510213,570.2571 15.2260213,572.3361 C15.2130213,573.4541 15.2730213,574.8371 13.7700213,574.9101 C11.8310213,575.0051 12.1000213,573.3441 12.0700213,572.1331 C12.0060213,569.5761 11.9740213,567.0131 12.0600213,564.4571 C12.1360213,562.2281 11.2490213,561.1611 8.96302129,561.3471 C8.16902129,561.4111 7.36402129,561.3321 6.56502129,561.3541 C3.09902129,561.4481 3.04902129,561.4521 2.97702129,564.7881 C2.90902129,567.9861 2.98402129,571.1861 2.94402129,574.3851 C2.93102129,575.4401 3.26902129,576.9241 1.69102129,577.0511 C0.0460212876,577.1831 0.207021287,575.7191 0.201021287,574.6401 C0.176021287,570.1611 0.248021287,565.6811 0.169021287,561.2041 C0.133021287,559.1211 1.02902129,558.3651 3.03802129,558.4091 C6.55502129,558.4851 10.0750213,558.4301 13.5940213,558.4311" id="Fill-50" fill="#4B4B4B" fill-rule="nonzero"></path>
            <g id="Fill-52-Clipped" transform="translate(0.076726, 0.000000)">
                <mask id="mask-2" fill="white">
                    <use xlink:href="#path-1"></use>
                </mask>
                <g id="path-1"></g>
                <path d="M26.8458958,9.2554 C26.9348958,12.4814 26.6628958,15.0014 25.0978958,17.1984 C24.5538958,17.9614 23.7698958,18.1324 23.0158958,17.6494 C22.4448958,17.2844 22.3728958,16.6304 22.6268958,15.9514 C23.0178958,14.9044 23.3848958,13.8464 23.7098958,12.7784 C24.3858958,10.5554 24.2428958,8.3774 23.3748958,6.2144 C22.7008958,4.5334 21.4488958,3.7084 19.7208958,3.5794 C17.8678958,3.4414 16.6808958,4.3664 16.1458958,6.1094 C15.4918958,8.2444 14.8748958,10.3914 14.2548958,12.5374 C12.7718958,17.6664 10.2688958,19.9214 6.53389576,19.4794 C2.51489576,19.0034 0.244895764,15.9664 0.0328957638,10.7924 C-0.106104236,7.3914 0.123895764,4.0754 2.13389576,1.1394 C2.73089576,0.2674 3.49489576,-0.3276 4.53089576,0.1964 C5.82989576,0.8534 5.11989576,1.8204 4.63989576,2.5964 C2.87189576,5.4564 2.39789576,8.5674 2.90189576,11.8164 C3.23089576,13.9424 3.97789576,15.9604 6.56489576,16.1874 C9.10989576,16.4104 10.2928958,14.7644 10.9298958,12.5894 C11.5138958,10.5984 11.9948958,8.5764 12.6178958,6.5984 C14.0868958,1.9394 16.7548958,-0.2576 20.3178958,0.1704 C23.9818958,0.6094 26.5628958,3.8784 26.8418958,8.4464 C26.8708958,8.9244 26.8458958,9.4054 26.8458958,9.2554" id="Fill-52" fill="#4B4B4B" fill-rule="nonzero" mask="url(#mask-2)"></path>
            </g>
            <path d="M0.0109212876,521.8011 C-0.0210787124,518.6891 0.501921287,515.7331 2.24392129,513.1041 C2.78192129,512.2921 3.54992129,511.5661 4.63492129,512.2001 C5.82392129,512.8941 5.27592129,513.7741 4.74692129,514.6181 C2.96792129,517.4601 2.45192129,520.5801 3.00992129,523.8291 C3.37792129,525.9681 4.28192129,527.8241 6.87092129,528.0401 C9.28392129,528.2411 10.3209213,526.6621 10.9609213,524.7501 C11.7199213,522.4831 12.2079213,520.1221 13.0069213,517.8711 C14.4709213,513.7461 16.8329213,512.0671 20.3879213,512.3991 C23.6149213,512.7001 26.2519213,515.3561 26.7909213,519.1511 C27.2689213,522.5191 27.0279213,525.8611 25.4749213,528.9821 C25.0999213,529.7351 24.5129213,530.2801 23.5599213,529.9151 C22.6209213,529.5551 22.4859213,528.8561 22.8039213,527.9861 C23.4079213,526.3361 24.0699213,524.7011 24.1839213,522.9171 C24.3089213,520.9661 24.1669213,519.0571 23.0019213,517.3991 C21.0809213,514.6641 18.2029213,514.7941 16.4489213,517.6451 C15.4159213,519.3251 15.3359213,521.3021 14.6919213,523.1031 C14.3159213,524.1551 14.0619213,525.2501 13.6729213,526.2971 C12.2629213,530.0901 10.3629213,531.5731 7.11792129,531.4721 C4.00192129,531.3751 1.29392129,529.0641 0.437921287,525.6001 C0.134921287,524.3741 0.143921287,523.0701 0.0109212876,521.8011" id="Fill-55" fill="#4B4B4B" fill-rule="nonzero"></path>
            <path d="M0.0986212876,627.3556 C0.181621287,620.6996 3.68462129,615.9216 9.56562129,614.1116 C15.1146213,612.4036 21.0786213,614.3996 24.4216213,619.0826 C27.7216213,623.7066 27.8766213,630.9956 24.7446213,635.3556 C24.2036213,636.1096 23.6486213,637.1326 22.4886213,636.5086 C21.0906213,635.7566 21.6596213,634.7226 22.2476213,633.6766 C23.5186213,631.4156 24.4726213,629.0176 24.0336213,626.3686 C23.3366213,622.1726 21.4086213,618.6446 17.1556213,617.3226 C13.1586213,616.0816 9.23262129,616.4856 6.07162129,619.7596 C2.86362129,623.0836 2.18562129,626.9596 3.55262129,631.2606 C3.83862129,632.1586 4.29362129,633.0286 4.80862129,633.8226 C5.38362129,634.7096 5.79362129,635.5896 4.79662129,636.3226 C3.46162129,637.3046 2.68962129,636.1336 2.12062129,635.2526 C0.510621287,632.7626 -0.0733787124,629.9716 0.0986212876,627.3556" id="Fill-57" fill="#4B4B4B" fill-rule="nonzero"></path>
            <path d="M11.6372213,591.6617 C8.92322129,591.6607 6.20822129,591.7177 3.49722129,591.6357 C2.18422129,591.5957 0.251221287,592.1137 0.358221287,589.8287 C0.446221287,587.9737 2.11422129,588.3167 3.31922129,588.3057 C8.10722129,588.2657 12.8962213,588.2897 17.6852213,588.2847 C18.8022213,588.2837 19.9202213,588.2417 21.0362213,588.2617 C22.8532213,588.2947 23.6152213,587.3707 23.6052213,585.6147 C23.5962213,584.0197 23.5992213,582.4197 23.7202213,580.8307 C23.8002213,579.7807 24.4062213,578.9777 25.5742213,579.1077 C26.5142213,579.2127 26.7912213,580.0137 26.7942213,580.8707 C26.8082213,584.5427 26.8142213,588.2137 26.8142213,591.8857 C26.8142213,594.1197 26.8252213,596.3557 26.7772213,598.5897 C26.7562213,599.6197 26.3942213,600.5187 25.1452213,600.4717 C23.8822213,600.4237 23.7072213,599.4537 23.6442213,598.4527 C23.6342213,598.2937 23.6422213,598.1337 23.6282213,597.9747 C23.0732213,591.6687 23.0732213,591.6687 16.9052213,591.6637 C15.1492213,591.6617 13.3932213,591.6627 11.6372213,591.6617" id="Fill-59" fill="#4B4B4B" fill-rule="nonzero"></path>
            <path d="M11.4971213,293.9284 C14.2111213,293.9284 16.9251213,293.9834 19.6371213,293.9154 C23.2991213,293.8224 23.4341213,293.6594 23.6111213,290.1494 C23.6751213,288.8754 23.6531213,287.5964 23.7561213,286.3264 C23.8121213,285.6374 24.2871213,285.1814 24.9991213,285.1084 C25.9271213,285.0144 26.6101213,285.4614 26.6751213,286.3744 C26.8011213,288.1214 26.8031213,289.8794 26.8111213,291.6334 C26.8271213,295.6234 26.8481213,299.6154 26.7941213,303.6054 C26.7781213,304.7694 27.2401213,306.5164 25.2521213,306.4234 C23.4931213,306.3414 23.6991213,304.7114 23.6341213,303.4694 C23.5831213,302.5134 23.5481213,301.5484 23.6251213,300.5974 C23.8281213,298.0744 22.6081213,297.2464 20.2101213,297.2934 C15.2641213,297.3904 10.3151213,297.3194 5.36612129,297.3154 C4.40912129,297.3154 3.45112129,297.3174 2.49312129,297.2934 C1.27312129,297.2634 0.207121287,296.9774 0.330121287,295.4324 C0.430121287,294.1874 1.40812129,293.9744 2.39912129,293.9654 C5.43112129,293.9374 8.46412129,293.9554 11.4971213,293.9554 C11.4971213,293.9464 11.4971213,293.9374 11.4971213,293.9284" id="Fill-61" fill="#4B4B4B" fill-rule="nonzero"></path>
            <path d="M11.6692213,544.9315 C9.27522129,544.9315 6.87322129,545.0465 4.48922129,544.8895 C2.96322129,544.7895 0.320221287,545.8435 0.449221287,543.1315 C0.572221287,540.5525 3.18622129,541.6455 4.71622129,541.5985 C9.34022129,541.4545 13.9722213,541.5685 18.6012213,541.5395 C23.4612213,541.5085 23.3932213,541.4835 23.6572213,536.8885 C23.7442213,535.3695 22.7112213,532.7545 25.3922213,532.8465 C27.6022213,532.9215 26.7502213,535.3445 26.7782213,536.7745 C26.8742213,541.7205 26.8292213,546.6705 26.8012213,551.6185 C26.7952213,552.6905 26.9952213,554.0865 25.3282213,554.06788 C23.8212213,554.0505 23.7582213,552.7745 23.6332213,551.6405 C23.4092213,549.6135 24.4922213,547.0685 22.9272213,545.6625 C21.0872213,544.0115 18.3292213,545.1135 15.9772213,544.9495 C14.5482213,544.8505 13.1062213,544.9315 11.6692213,544.9315" id="Fill-63" fill="#4B4B4B" fill-rule="nonzero"></path>
            <path d="M13.9280213,341.5249 C17.1090213,341.5219 20.2920213,341.4769 23.4710213,341.5449 C24.6340213,341.5699 26.4760213,341.0339 26.5140213,342.8539 C26.5610213,345.0349 24.5290213,344.3989 23.2640213,344.4159 C18.0160213,344.4869 12.7660213,344.4279 7.51702129,344.4519 C3.02102129,344.4719 3.00902129,344.4929 2.96502129,348.8129 C2.93802129,351.5179 2.96802129,354.2219 2.94802129,356.9259 C2.94102129,357.8699 3.00402129,358.9929 1.72402129,359.1309 C0.420021287,359.2719 0.210021287,358.2519 0.208021287,357.2449 C0.195643423,352.7909 0.235021287,348.3369 0.195643423,343.8829 C0.179021287,341.9209 1.29802129,341.5019 2.95302129,341.5179 C6.61102129,341.5509 10.2700213,341.5279 13.9280213,341.5249" id="Fill-65" fill="#4B4B4B" fill-rule="nonzero"></path>
            <path d="M108.583121,618.004 C107.920121,619.479 106.712121,619.96 105.190121,619.868 C94.5881213,609.605 83.9841213,599.341 72.8671213,588.58 C75.4161213,588.249 76.1951213,589.626 77.1291213,590.52 C85.8881213,598.907 94.6101213,607.331 103.348121,615.74 C104.807121,617.144 106.054121,619.065 108.583121,618.004" id="Fill-67" fill="#000000" fill-rule="nonzero"></path>
            <path d="M13.5543213,423.4315 C16.9103213,423.4315 20.2663213,423.3975 23.6203213,423.4495 C24.8473213,423.4685 26.4813213,423.3035 26.4153213,425.1735 C26.3633213,426.6605 24.9533213,426.6475 23.8463213,426.6515 C16.8153213,426.6735 9.78532129,426.6685 2.75432129,426.6545 C1.62632129,426.6525 0.314321287,426.6285 0.453321287,425.0195 C0.579321287,423.5535 1.89732129,423.4765 3.00832129,423.4625 C6.52332129,423.4185 10.0393213,423.4465 13.5543213,423.4465 C13.5543213,423.4415 13.5543213,423.4365 13.5543213,423.4315" id="Fill-69" fill="#4B4B4B" fill-rule="nonzero"></path>
            <path d="M117.231321,634.1795 C117.143321,632.9735 117.817321,632.1525 118.633321,631.4055 C117.926321,633.9885 119.963321,635.1545 121.395321,636.5435 C129.657321,644.5545 137.976321,652.5065 146.248321,660.5085 C147.328321,661.5545 148.793321,662.3705 149.358321,665.2805 C146.534321,662.7355 144.441321,660.9535 142.465321,659.0495 C133.958321,650.8575 125.212321,642.9055 117.231321,634.1795" id="Fill-71" fill="#000000" fill-rule="nonzero"></path>
            <path d="M0.152921287,607.2463 C0.152921287,606.7033 0.153921287,606.1613 0.153921287,605.6173 C1.90092129,605.5013 3.64692129,605.3063 5.39492129,605.2853 C12.2619213,605.2003 19.1299213,605.1713 25.9969213,605.1213 C26.2799213,606.0113 26.2779213,606.8993 25.9719213,607.7813 C23.5819213,607.7223 21.1899213,607.6753 18.7989213,607.6043 C12.5849213,607.4193 6.35592129,608.0163 0.152921287,607.2463" id="Fill-73" fill="#4B4B4B" fill-rule="nonzero"></path>
            <path d="M25.9967213,605.1214 C19.1297213,605.1714 12.2617213,605.2004 5.39472129,605.2854 C3.64672129,605.3064 1.90172129,605.5014 0.154721287,605.6174 C0.706721287,604.6454 1.63472129,604.5104 2.62472129,604.5104 C9.81972129,604.5144 17.0147213,604.5044 24.2107213,604.5474 C24.8067213,604.5514 25.4017213,604.9214 25.9967213,605.1214" id="Fill-75" fill="#4B4B4B" fill-rule="nonzero"></path>
            <path d="M0.152921287,607.2463 C6.35592129,608.0163 12.5849213,607.4193 18.7989213,607.6043 C21.1899213,607.6753 23.5819213,607.7223 25.9719213,607.7813 C24.0149213,608.8463 21.8989213,608.2903 19.8599213,608.3233 C14.7549213,608.4073 9.64592129,608.3933 4.53992129,608.3263 C3.02992129,608.3063 1.28592129,608.9223 0.152921287,607.2463" id="Fill-77" fill="#4B4B4B" fill-rule="nonzero"></path>
            <path d="M33.3345213,573.3245 C30.6315213,570.6755 28.5485213,568.9305 28.5175213,564.9585 C31.0655213,567.4425 33.9095213,568.6975 33.3345213,573.3245" id="Fill-79" fill="#4B4B4B" fill-rule="nonzero"></path>
            <path d="M28.9917213,60.7806 C31.0297213,62.5866 34.1707213,63.6906 33.2087213,67.9436 C30.8887213,65.7796 28.6677213,64.0906 28.9917213,60.7806" id="Fill-81" fill="#AAA7A7" fill-rule="nonzero"></path>
            <path d="M0.203721287,471.2176 C0.354721287,469.8876 1.11472129,469.2136 2.44972129,469.3426 C3.49772129,469.4436 4.29972129,470.0096 4.30572129,471.1456 C4.31272129,472.4486 3.49072129,473.3056 2.25772129,473.3746 C0.936721287,473.4476 0.281721287,472.5356 0.203721287,471.2176" id="Fill-83" fill="#4B4B4B" fill-rule="nonzero"></path>
            <path d="M4.35492129,146.6945 C4.21392129,148.0565 3.49392129,148.9205 2.23792129,148.9665 C0.905921287,149.0155 0.215921287,148.1065 0.237921287,146.8025 C0.256921287,145.7015 0.908921287,145.0125 2.01392129,144.9405 C3.28992129,144.8565 4.15392129,145.4175 4.35492129,146.6945" id="Fill-85" fill="#4B4B4B" fill-rule="nonzero"></path>
        </g>
    </g>
</svg>